<svg version="1.1" id="Layer_1" xmlns="http://www.w3.org/2000/svg" xmlns:xlink="http://www.w3.org/1999/xlink" x="0px" y="0px"
	 width="100%" viewBox="0 0 288 318" enable-background="new 0 0 288 318" xml:space="preserve">
<!-- <path fill="#000000" opacity="1.000000" stroke="none" 
	d="
M289.000000,118.000000 
	C289.000000,185.333328 289.000000,252.166641 289.000000,319.000000 
	C193.000031,319.000000 97.000061,319.000000 1.000066,319.000000 
	C1.000044,213.000046 1.000044,107.000099 1.000022,1.000108 
	C96.999939,1.000072 192.999878,1.000072 288.999908,1.000036 
	C289.000000,39.833332 289.000000,78.666664 289.000000,118.000000 
M270.001129,198.500000 
	C270.001129,137.406281 270.001129,76.312553 270.001129,15.285099 
	C186.692291,15.285099 103.955833,15.285099 21.284916,15.285099 
	C21.284916,107.974495 21.284916,200.377335 21.284916,292.714844 
	C104.307785,292.714844 187.044250,292.714844 270.001129,292.714844 
	C270.001129,261.452728 270.001129,230.476364 270.001129,198.500000 
z"/> -->
<!-- <path fill="#FEFEFE" opacity="1.000000" stroke="none" 
	d="
M270.001129,199.000000 
	C270.001129,230.476364 270.001129,261.452728 270.001129,292.714844 
	C187.044250,292.714844 104.307785,292.714844 21.284916,292.714844 
	C21.284916,200.377335 21.284916,107.974495 21.284916,15.285099 
	C103.955833,15.285099 186.692291,15.285099 270.001129,15.285099 
	C270.001129,76.312553 270.001129,137.406281 270.001129,199.000000 
M95.899780,74.384041 
	C94.063721,76.078522 92.171707,77.716637 90.399849,79.475784 
	C53.545605,116.065224 38.016552,159.820129 48.198372,211.156006 
	C53.341022,237.084839 68.987328,255.737366 94.922409,263.411255 
	C126.346176,272.709167 156.100464,266.926758 181.782043,247.244751 
	C226.719315,212.805420 247.117966,166.590286 241.884430,109.959358 
	C240.171753,91.426704 232.375809,74.971451 218.153137,62.426197 
	C196.639008,43.449455 171.449539,41.668888 144.981155,48.343693 
	C126.820976,52.923328 110.856316,62.038071 95.899780,74.384041 
z"/> -->
<path fill="#020202" opacity="1.000000" stroke="none" 
	d="
M96.181778,74.165771 
	C110.856316,62.038071 126.820976,52.923328 144.981155,48.343693 
	C171.449539,41.668888 196.639008,43.449455 218.153137,62.426197 
	C232.375809,74.971451 240.171753,91.426704 241.884430,109.959358 
	C247.117966,166.590286 226.719315,212.805420 181.782043,247.244751 
	C156.100464,266.926758 126.346176,272.709167 94.922409,263.411255 
	C68.987328,255.737366 53.341022,237.084839 48.198372,211.156006 
	C38.016552,159.820129 53.545605,116.065224 90.399849,79.475784 
	C92.171707,77.716637 94.063721,76.078522 96.181778,74.165771 
M78.717972,185.303787 
	C77.195816,202.002258 77.218025,218.583893 83.336342,234.535400 
	C91.976814,257.062653 111.825401,266.496918 134.888626,259.129517 
	C151.455612,253.837296 163.859009,242.803162 173.684158,229.079758 
	C200.266418,191.950638 212.858505,150.312012 212.089783,104.668068 
	C211.885315,92.526299 209.153000,80.953087 203.089005,70.322021 
	C194.378555,55.051350 179.390244,48.431244 162.106720,51.811508 
	C147.948715,54.580494 136.633057,62.312378 127.071510,72.457100 
	C97.469292,103.864815 84.422668,142.564667 78.717972,185.303787 
z"/>
<!-- <path fill="#FEFEFE" opacity="1.000000" stroke="none" 
	d="
M78.771118,184.852264 
	C84.422668,142.564667 97.469292,103.864815 127.071510,72.457100 
	C136.633057,62.312378 147.948715,54.580494 162.106720,51.811508 
	C179.390244,48.431244 194.378555,55.051350 203.089005,70.322021 
	C209.153000,80.953087 211.885315,92.526299 212.089783,104.668068 
	C212.858505,150.312012 200.266418,191.950638 173.684158,229.079758 
	C163.859009,242.803162 151.455612,253.837296 134.888626,259.129517 
	C111.825401,266.496918 91.976814,257.062653 83.336342,234.535400 
	C77.218025,218.583893 77.195816,202.002258 78.771118,184.852264 
z"/> -->
</svg>