<svg xmlns="http://www.w3.org/2000/svg" xmlns:xlink="http://www.w3.org/1999/xlink" version="1.1" id="Layer_1" x="0px" y="0px" width="100%" viewBox="0 0 391 403" enable-background="new 0 0 391 403" xml:space="preserve">
<path fill="#000000" opacity="1.000000" stroke="none" d=" M25.186579,235.516815   C27.212734,230.724594 29.076109,226.324524 30.630541,222.653992   C24.216038,209.347916 15.865480,197.399857 16.917021,181.975388   C17.403452,174.840210 17.472271,167.605820 16.891350,160.484863   C15.977867,149.287354 19.828644,138.828766 24.662874,129.829971   C30.029562,119.840004 37.897095,110.857788 48.452030,104.564178   C56.694866,99.649200 65.324013,96.282730 74.073082,92.744026   C76.632042,91.709000 78.698891,87.685844 79.601837,84.622711   C84.535507,67.885880 97.273972,57.588963 109.761650,47.023560   C118.877151,39.311234 129.838379,35.095638 140.747849,30.810558   C142.059174,30.295485 143.548584,30.132351 144.972153,30.022720   C150.049042,29.631746 155.159622,28.861280 160.206589,29.143549   C164.645294,29.391794 168.997696,30.957348 173.420166,31.766453   C184.583038,33.808743 194.101334,39.160980 203.390930,45.447647   C205.637573,46.968052 210.030029,45.748989 213.333313,45.187256   C220.299164,44.002682 227.199371,41.220421 234.122772,41.232536   C252.446777,41.264587 270.023743,45.523109 286.069366,54.645264   C298.824371,61.896671 307.890961,72.270966 314.349884,85.844467   C319.669434,97.023598 320.079559,108.841095 322.936829,120.306442   C323.181976,121.290054 323.950439,122.516747 324.808868,122.917992   C337.566803,128.881210 346.485504,139.236725 352.928070,150.948242   C358.722412,161.481400 362.555237,173.312637 365.794373,184.976440   C369.765045,199.274216 366.908051,213.195465 360.846771,226.740753   C355.546326,238.585754 347.158844,247.733673 338.143799,256.625000   C336.953217,257.799255 336.534912,260.875854 337.143829,262.575104   C341.342407,274.291138 336.959045,285.548340 334.361969,296.388611   C332.380493,304.659241 326.197540,311.927582 321.857147,319.626831   C320.053802,322.825623 318.523224,326.253479 316.279572,329.115356   C307.785309,339.950165 297.155609,347.689667 283.892731,352.106506   C273.257538,355.648254 262.517273,356.510925 251.515274,355.967651   C249.765442,355.881287 248.001068,355.494293 246.305344,355.023376   C241.915054,353.804169 238.106110,353.201965 235.149963,358.198456   C231.195435,364.882385 223.347794,366.761139 217.561249,371.201324   C209.733185,377.208038 200.248260,376.804749 191.428772,378.945526   C186.097397,380.239624 180.534973,380.632477 175.258636,382.090088   C168.619171,383.924255 162.415024,381.976685 156.024734,381.036743   C142.895462,379.105499 131.859390,372.620178 122.667572,363.776886   C115.058899,356.456726 109.147858,347.372040 101.770088,338.178711   C92.232185,338.574371 81.913895,334.327606 71.942322,330.045837   C65.731262,327.378876 60.677876,321.963226 55.198967,317.661377   C51.222878,314.539520 47.105804,311.513336 43.565979,307.935547   C33.265228,297.524323 26.493048,285.520905 23.647877,270.660675   C21.345932,258.637695 24.166580,247.455185 25.186579,235.516815  M177.032593,251.372543   C177.605713,252.278336 178.178833,253.184128 179.404770,255.121689   C190.547836,240.195297 204.681900,235.995193 221.815948,243.783005   C219.021164,218.082413 221.798569,215.323730 239.729538,201.907104   C222.872482,194.435364 214.972626,181.949371 218.451508,163.965225   C210.242081,165.367249 202.194733,168.689453 194.940079,167.433365   C187.669510,166.174484 181.190109,160.346085 173.461243,156.014618   C170.360138,173.487198 159.337357,183.056183 139.839462,183.964569   C152.480392,198.862701 153.535248,213.562759 143.293457,227.648483   C151.077057,230.178345 159.284714,231.321274 165.611908,235.389099   C170.597641,238.594498 173.266556,245.403503 177.032593,251.372543  M260.498718,325.000000   C288.994965,320.867004 305.138641,302.047760 305.485260,275.112427   C290.308960,281.421906 274.332001,282.584442 259.110443,282.004700   C259.110443,289.541107 259.467926,296.619019 259.010681,303.643951   C258.546173,310.779938 257.278076,317.863586 256.358032,325.000000   C256.970276,325.000000 258.299713,325.000000 260.498718,325.000000  M138.474228,64.953262   C126.937195,69.776260 118.322731,77.472687 113.926201,88.371826   C129.412720,93.198082 144.270782,97.828484 158.813187,102.360512   C161.043793,96.657593 162.924622,89.535645 166.487762,83.388885   C170.061569,77.223709 175.313278,72.031174 180.092361,66.085449   C176.205139,65.009674 172.830078,64.053886 169.443115,63.142387   C159.186386,60.382084 149.051086,60.635910 138.474228,64.953262  M256.087799,74.021263   C247.712479,72.375099 239.380753,72.305321 231.362564,74.192345   C235.008606,81.678825 238.940277,88.657745 241.851456,96.039139   C244.723373,103.321030 246.562561,111.010223 248.983002,118.940681   C261.689026,112.515182 275.432098,110.665733 289.602417,112.282852   C289.971649,108.227715 283.563019,93.517967 281.014313,90.970818   C273.971008,83.931755 266.644470,77.370811 256.087799,74.021263  M324.994598,165.489456   C323.555115,163.720795 322.232208,161.839279 320.652130,160.206696   C317.245697,156.687134 316.900055,157.068298 314.826172,161.411362   C310.759064,169.928543 306.521332,178.396042 301.762482,186.538269   C299.209076,190.907074 295.426880,194.557663 292.175201,198.561859   C299.980591,202.620911 307.455353,206.325211 312.771484,213.198074   C315.379761,216.570129 318.340942,219.687042 321.309387,222.757965   C324.586426,226.148132 325.817413,225.968307 328.032257,221.490356   C331.523560,214.431534 334.376770,207.391022 335.337494,199.193863   C336.846039,186.323074 333.164642,175.768555 324.994598,165.489456  M53.433510,144.053284   C43.929852,159.385620 43.778946,175.026810 50.993004,190.171646   C64.138092,181.130814 77.038284,172.258392 89.754105,163.512787   C83.030716,152.374405 76.178558,139.935974 75.574966,124.638962   C66.527916,129.860687 58.952759,135.219910 53.433510,144.053284  M54.002472,253.751404   C53.346416,281.069733 73.663605,301.039856 90.999016,301.709961   C92.339600,286.262085 93.677681,270.843109 95.038284,255.164520   C81.190002,255.204865 67.772118,250.926971 55.561314,242.890182   C55.013855,246.454727 54.524330,249.642075 54.002472,253.751404  M193.047577,331.563019   C184.641190,324.360321 176.234802,317.157623 168.318192,310.374573   C161.547272,320.250732 148.958405,326.430450 136.164474,332.350830   C157.284592,358.427521 189.166473,355.531799 204.887650,340.378235   C201.138458,337.572266 197.395905,334.771301 193.047577,331.563019  M87.420380,197.962387   C81.740089,202.472336 76.059792,206.982269 69.608131,212.104660   C74.721603,214.821686 78.441238,217.670135 82.630142,218.843903   C91.589569,221.354416 100.747055,223.243835 109.909782,224.913773   C116.321213,226.082291 119.131958,224.493073 120.264389,219.060974   C120.791130,216.534302 120.031937,213.359207 118.887070,210.935593   C115.425980,203.608597 111.490753,196.505600 107.297722,188.466721   C101.224442,191.307053 94.617226,194.397110 87.420380,197.962387  M148.990158,284.515076   C151.815155,281.692017 155.314255,279.256531 157.235916,275.914093   C158.591049,273.557068 158.361130,269.851532 157.753769,266.977356   C157.421875,265.406769 155.006943,263.528198 153.233643,263.136566   C144.342117,261.172852 135.352234,259.654541 125.932556,257.892853   C119.068184,271.087433 118.965622,285.842041 120.988914,301.194366   C132.085419,298.027557 140.551117,291.971436 148.990158,284.515076  M142.998627,127.491096   C132.599228,121.220810 121.328056,118.241646 108.692680,118.005623   C109.083344,120.491928 109.438454,122.383438 109.670860,124.289917   C111.344742,138.021591 119.212448,148.938766 126.080070,160.296768   C126.667847,161.268875 128.292633,162.669174 128.841125,162.441040   C132.832153,160.781097 137.808273,160.726913 139.805161,155.624161   C142.823029,147.912476 146.104446,140.303925 149.577713,131.917953   C148.075790,130.925232 145.834808,129.443985 142.998627,127.491096  M263.476837,180.984787   C266.294342,185.080582 268.678864,183.361053 270.941864,180.409653   C271.622498,179.521957 272.092621,178.440155 272.877899,177.670364   C281.761841,168.961578 287.096222,158.355148 289.960297,146.491272   C274.265228,143.933014 259.866547,148.344666 245.680695,153.776962   C241.959641,155.201904 241.781189,164.549103 245.150726,167.037567   C251.137329,171.458801 257.043518,175.988907 263.476837,180.984787  M208.978760,92.465096   C206.045334,87.819374 205.732101,88.036919 202.463562,91.952530   C192.916779,103.389267 187.489105,116.754456 183.354401,130.801285   C185.659225,132.447891 187.763901,134.258072 190.152039,135.540421   C191.541992,136.286789 193.532806,136.754303 195.002014,136.374725   C203.646744,134.141251 212.217575,131.621658 220.983170,129.150574   C220.627014,116.131485 216.435669,104.143600 208.978760,92.465096  M203.010605,276.481995   C199.060226,279.557220 195.109848,282.632416 190.684418,286.077454   C192.718750,289.269226 194.768021,292.688049 197.015854,295.970886   C202.531311,304.025940 209.995789,309.941956 218.201218,315.034210   C220.441742,316.424683 222.427429,316.651978 223.000946,313.599945   C224.389801,306.209137 226.041306,298.806366 226.570435,291.336456   C226.932419,286.226410 225.187912,280.999817 225.127258,275.816650   C225.080078,271.784424 224.102158,269.281647 219.916809,268.378815   C217.965530,267.957886 216.146164,266.925323 214.621384,266.312439   C210.715851,269.717346 207.123138,272.849548 203.010605,276.481995  M293.645386,242.099976   C289.959595,238.132080 286.666260,233.676392 282.490784,230.317169   C277.008362,225.906525 270.866577,222.304214 264.919647,218.492706   C263.846863,217.805115 262.184418,217.226242 261.070129,217.549179   C254.827744,219.358398 252.190125,225.152802 253.081070,231.582916   C253.879471,237.345261 253.853012,243.347351 253.213852,249.135834   C252.837189,252.546890 253.965179,253.637619 256.657928,253.960129   C268.689667,255.401093 280.361145,254.456497 291.945343,250.236954   C297.517456,248.207306 296.515717,246.097076 293.645386,242.099976  z"/>
</svg>